<svg class="diagram-root" style="background: #f5f6f6" xmlns="http://www.w3.org/2000/svg" xmlns:xlink="http://www.w3.org/1999/xlink"><style>.diagram-root { font-family: "Helvetica Neue", sans-serif; font-size: 12px; } .t { overflow: visible; } .t-bg { y: 40; fill: #fff;   } .th { fill: #005aa0;   } .tht { fill: #fff; font-size: 14px;  } .tf { fill: #323c46; overflow: visible; } .tf.pk { fill: #005aa0; font-weight: bold; } .tf.fk { font-weight: bold; } .ty { fill: #adb1b5; font-weight: normal; text-anchor: end; } .r { fill: transparent; stroke: #c3c3c3; stroke-width: 1; } .l { stroke: 1; } .i { fill: #c2c7ce; stroke: #c2c7ce; } .i.ix { fill: #afb3b6; stroke: #000; } .fa { fill: transparent; overflow: visible; } .fa .bg.hover { fill: #f7f7f7; } .c { cy: 12; r: 4; stroke: #d2d2dc; fill: #d2d2dc; } .hr { fill: transparent; stroke: #323c46; stroke-opacity: 0.035; stroke-width: 13; } .dc { stroke: #fa5a3c; fill: #fa5a3c; } .x { stroke: white; stroke-width: 1; } .hl .th { fill: #1b9bff; } .hl .tht {  } .fhl .bg { fill: #e7f4ff; } .fhls .bg {  } .r.hl { stroke: #1b9bff; } .dim { opacity: 0.25; }</style><g class="drawing-wrapper" transform="translate(-78, -6) scale(1,1)"><g class="rs"><path d="M 558 93 m -1, 0 a 1,1 0 1,0 2,0 a 1,1 0 1,0 -2,0 M 558 93 m -0.5, 0 a 0.5,0.5 0 1,0 1,0 a 0.5,0.5 0 1,0 -1,0  M558 93 L558 93 570 93 M 558 99 m -1, 0 a 1,1 0 1,0 2,0 a 1,1 0 1,0 -2,0 M 558 99 m -0.5, 0 a 0.5,0.5 0 1,0 1,0 a 0.5,0.5 0 1,0 -1,0  M558 99 L558 99 565 93 558 87 M 558 87 m -1, 0 a 1,1 0 1,0 2,0 a 1,1 0 1,0 -2,0 M 558 87 m -0.5, 0 a 0.5,0.5 0 1,0 1,0 a 0.5,0.5 0 1,0 -1,0  M570 93 C 634.4 93, 629 382, 579 382 M 567 382 m -1, 0 a 1,1 0 1,0 2,0 a 1,1 0 1,0 -2,0 M 567 382 m -0.5, 0 a 0.5,0.5 0 1,0 1,0 a 0.5,0.5 0 1,0 -1,0  M567 382 L567 382 579 382 M573 388 L573 388 573 376" id="h1139284389" class="r"></path><path d="M 412 118 m -1, 0 a 1,1 0 1,0 2,0 a 1,1 0 1,0 -2,0 M 412 118 m -0.5, 0 a 0.5,0.5 0 1,0 1,0 a 0.5,0.5 0 1,0 -1,0  M412 118 L412 118 400 118 M 412 124 m -1, 0 a 1,1 0 1,0 2,0 a 1,1 0 1,0 -2,0 M 412 124 m -0.5, 0 a 0.5,0.5 0 1,0 1,0 a 0.5,0.5 0 1,0 -1,0  M412 124 L412 124 405 118 412 112 M 412 112 m -1, 0 a 1,1 0 1,0 2,0 a 1,1 0 1,0 -2,0 M 412 112 m -0.5, 0 a 0.5,0.5 0 1,0 1,0 a 0.5,0.5 0 1,0 -1,0  M400 118 Q 369.5 118, 339 121.5 T 278 125 M 266 125 m -1, 0 a 1,1 0 1,0 2,0 a 1,1 0 1,0 -2,0 M 266 125 m -0.5, 0 a 0.5,0.5 0 1,0 1,0 a 0.5,0.5 0 1,0 -1,0  M266 125 L266 125 278 125 M272 131 L272 131 272 119" id="h1607168654" class="r"></path><path d="M 411 235 m -1, 0 a 1,1 0 1,0 2,0 a 1,1 0 1,0 -2,0 M 411 235 m -0.5, 0 a 0.5,0.5 0 1,0 1,0 a 0.5,0.5 0 1,0 -1,0  M411 235 L411 235 399 235 M 411 241 m -1, 0 a 1,1 0 1,0 2,0 a 1,1 0 1,0 -2,0 M 411 241 m -0.5, 0 a 0.5,0.5 0 1,0 1,0 a 0.5,0.5 0 1,0 -1,0  M411 241 L411 241 404 235 411 229 M 411 229 m -1, 0 a 1,1 0 1,0 2,0 a 1,1 0 1,0 -2,0 M 411 229 m -0.5, 0 a 0.5,0.5 0 1,0 1,0 a 0.5,0.5 0 1,0 -1,0  M399 235 Q 368.75 235, 338.5 180 T 278 125 M 266 125 m -1, 0 a 1,1 0 1,0 2,0 a 1,1 0 1,0 -2,0 M 266 125 m -0.5, 0 a 0.5,0.5 0 1,0 1,0 a 0.5,0.5 0 1,0 -1,0  M266 125 L266 125 278 125 M272 131 L272 131 272 119" id="h1397587031" class="r"></path><path d="M 557 260 m -1, 0 a 1,1 0 1,0 2,0 a 1,1 0 1,0 -2,0 M 557 260 m -0.5, 0 a 0.5,0.5 0 1,0 1,0 a 0.5,0.5 0 1,0 -1,0  M557 260 L557 260 569 260 M 557 266 m -1, 0 a 1,1 0 1,0 2,0 a 1,1 0 1,0 -2,0 M 557 266 m -0.5, 0 a 0.5,0.5 0 1,0 1,0 a 0.5,0.5 0 1,0 -1,0  M557 266 L557 266 564 260 557 254 M 557 254 m -1, 0 a 1,1 0 1,0 2,0 a 1,1 0 1,0 -2,0 M 557 254 m -0.5, 0 a 0.5,0.5 0 1,0 1,0 a 0.5,0.5 0 1,0 -1,0  M569 260 C 625.8030499949316 260, 619.8030499949316 382, 579 382 M 567 382 m -1, 0 a 1,1 0 1,0 2,0 a 1,1 0 1,0 -2,0 M 567 382 m -0.5, 0 a 0.5,0.5 0 1,0 1,0 a 0.5,0.5 0 1,0 -1,0  M567 382 L567 382 579 382 M573 388 L573 388 573 376" id="h2286254435" class="r"></path><path d="M 398 407 m -1, 0 a 1,1 0 1,0 2,0 a 1,1 0 1,0 -2,0 M 398 407 m -0.5, 0 a 0.5,0.5 0 1,0 1,0 a 0.5,0.5 0 1,0 -1,0  M398 407 L398 407 386 407 M 398 413 m -1, 0 a 1,1 0 1,0 2,0 a 1,1 0 1,0 -2,0 M 398 413 m -0.5, 0 a 0.5,0.5 0 1,0 1,0 a 0.5,0.5 0 1,0 -1,0  M398 413 L398 413 391 407 398 401 M 398 401 m -1, 0 a 1,1 0 1,0 2,0 a 1,1 0 1,0 -2,0 M 398 401 m -0.5, 0 a 0.5,0.5 0 1,0 1,0 a 0.5,0.5 0 1,0 -1,0  M386 407 Q 361 407, 336 391 T 286 375 M 274 375 m -1, 0 a 1,1 0 1,0 2,0 a 1,1 0 1,0 -2,0 M 274 375 m -0.5, 0 a 0.5,0.5 0 1,0 1,0 a 0.5,0.5 0 1,0 -1,0  M274 375 L274 375 286 375 M280 381 L280 381 280 369" id="h1537058300" class="r"></path><path d="M 683 427 m -1, 0 a 1,1 0 1,0 2,0 a 1,1 0 1,0 -2,0 M 683 427 m -0.5, 0 a 0.5,0.5 0 1,0 1,0 a 0.5,0.5 0 1,0 -1,0  M683 427 L683 427 671 427 M 683 433 m -1, 0 a 1,1 0 1,0 2,0 a 1,1 0 1,0 -2,0 M 683 433 m -0.5, 0 a 0.5,0.5 0 1,0 1,0 a 0.5,0.5 0 1,0 -1,0  M683 433 L683 433 676 427 683 421 M 683 421 m -1, 0 a 1,1 0 1,0 2,0 a 1,1 0 1,0 -2,0 M 683 421 m -0.5, 0 a 0.5,0.5 0 1,0 1,0 a 0.5,0.5 0 1,0 -1,0  M671 427 Q 648 427, 625 404.5 T 579 382 M 567 382 m -1, 0 a 1,1 0 1,0 2,0 a 1,1 0 1,0 -2,0 M 567 382 m -0.5, 0 a 0.5,0.5 0 1,0 1,0 a 0.5,0.5 0 1,0 -1,0  M567 382 L567 382 579 382 M573 388 L573 388 573 376" id="h3177548053" class="r"></path></g><g class="hrs"></g><g class="ts"><svg width="166" height="100" x="100" y="68" id="h475896179" class="t"><rect height="40" width="166" class="th"></rect><text x="13" y="25" class="tht">departments</text><rect height="60" width="166" class="t-bg" y="40"></rect><text x="13" y="61" class="tf pk">dept_no<tspan x="153" class="ty">varchar(4)</tspan></text><path d="M7,14A2,2 0 0,1 5,12A2,2 0 0,1 7,10A2,2 0 0,1 9,12A2,2 0 0,1 7,14M12.65,10C11.83,7.67 9.61,6 7, 6A6, 6 0 0, 0 1, 12A6, 6 0 0, 0 7, 18C9.61, 18 11.83, 16.33 12.65, 14H17V18H21V14H23V10H12.65Z" class="i pk" transform="translate(78, 48) scale(0.65)"></path><text x="13" y="86" class="tf">dept_name<tspan x="153" class="ty">string</tspan></text></svg><svg width="146" height="100" x="411" y="178" id="h1676682957" class="t"><rect height="40" width="146" class="th"></rect><text x="13" y="25" class="tht">dept_manager</text><rect height="60" width="146" class="t-bg" y="40"></rect><text x="13" y="61" class="tf fk">dept_no<tspan x="133" class="ty">varchar(4)</tspan></text><text x="13" y="86" class="tf fk">emp_no<tspan x="133" class="ty">int</tspan></text></svg><svg width="169" height="225" x="398" y="325" id="h1639608377" class="t"><rect height="40" width="169" class="th"></rect><text x="13" y="25" class="tht">employees</text><rect height="185" width="169" class="t-bg" y="40"></rect><text x="13" y="61" class="tf pk">emp_no<tspan x="156" class="ty">int</tspan></text><path d="M7,14A2,2 0 0,1 5,12A2,2 0 0,1 7,10A2,2 0 0,1 9,12A2,2 0 0,1 7,14M12.65,10C11.83,7.67 9.61,6 7, 6A6, 6 0 0, 0 1, 12A6, 6 0 0, 0 7, 18C9.61, 18 11.83, 16.33 12.65, 14H17V18H21V14H23V10H12.65Z" class="i pk" transform="translate(123, 48) scale(0.65)"></path><text x="13" y="86" class="tf fk">emp_title_id<tspan x="156" class="ty">varchar(5)</tspan></text><text x="13" y="111" class="tf">birth_date<tspan x="156" class="ty">date</tspan></text><text x="13" y="136" class="tf">first_name<tspan x="156" class="ty">varchar(50)</tspan></text><text x="13" y="161" class="tf">last_name<tspan x="156" class="ty">varchar(50)</tspan></text><text x="13" y="186" class="tf">sex<tspan x="156" class="ty">char</tspan></text><text x="13" y="211" class="tf">hire_date<tspan x="156" class="ty">date</tspan></text></svg><svg width="105" height="100" x="683" y="370" id="h2472833127" class="t"><rect height="40" width="105" class="th"></rect><text x="13" y="25" class="tht">salaries</text><rect height="60" width="105" class="t-bg" y="40"></rect><text x="13" y="61" class="tf fk">emp_no<tspan x="92" class="ty">int</tspan></text><text x="13" y="86" class="tf">salary<tspan x="92" class="ty">int</tspan></text></svg><svg width="157" height="100" x="117" y="318" id="h311790747" class="t"><rect height="40" width="157" class="th"></rect><text x="13" y="25" class="tht">titles</text><rect height="60" width="157" class="t-bg" y="40"></rect><text x="13" y="61" class="tf pk">title_id<tspan x="144" class="ty">varchar(5)</tspan></text><path d="M7,14A2,2 0 0,1 5,12A2,2 0 0,1 7,10A2,2 0 0,1 9,12A2,2 0 0,1 7,14M12.65,10C11.83,7.67 9.61,6 7, 6A6, 6 0 0, 0 1, 12A6, 6 0 0, 0 7, 18C9.61, 18 11.83, 16.33 12.65, 14H17V18H21V14H23V10H12.65Z" class="i pk" transform="translate(69, 48) scale(0.65)"></path><text x="13" y="86" class="tf">title<tspan x="144" class="ty">string</tspan></text></svg><svg width="146" height="100" x="412" y="36" id="h1090417462" class="t"><rect height="40" width="146" class="th"></rect><text x="13" y="25" class="tht">dept_emp</text><rect height="60" width="146" class="t-bg" y="40"></rect><text x="13" y="61" class="tf fk">emp_no<tspan x="133" class="ty">int</tspan></text><text x="13" y="86" class="tf fk">dept_no<tspan x="133" class="ty">varchar(4)</tspan></text></svg></g></g><text class="qdbd-link" x="10" y="20">www.quickdatabasediagrams.com</text></svg>